<svg xmlns="http://www.w3.org/2000/svg" width="1200" height="420" viewBox="0 0 1200 420" role="img" aria-label="litesite — 轻量个人主页 + 独立管理后台">
  <defs>
    <radialGradient id="glowA" cx="10%" cy="4%" r="70%">
      <stop offset="0%" stop-color="#F26B1F" stop-opacity="0.22"/>
      <stop offset="100%" stop-color="#F26B1F" stop-opacity="0"/>
    </radialGradient>
    <radialGradient id="glowB" cx="90%" cy="96%" r="62%">
      <stop offset="0%" stop-color="#E9B03A" stop-opacity="0.14"/>
      <stop offset="100%" stop-color="#E9B03A" stop-opacity="0"/>
    </radialGradient>
    <linearGradient id="rule" x1="0" y1="0" x2="1" y2="0">
      <stop offset="0%" stop-color="#F26B1F"/>
      <stop offset="55%" stop-color="#E9B03A"/>
      <stop offset="100%" stop-color="#E9B03A" stop-opacity="0"/>
    </linearGradient>
  </defs>

  <rect width="1200" height="420" fill="#0E0E11"/>
  <rect width="1200" height="420" fill="url(#glowA)"/>
  <rect width="1200" height="420" fill="url(#glowB)"/>

  <g opacity="0.16" fill="none" stroke="#F26B1F" stroke-linecap="round" stroke-linejoin="round">
    <path d="M840 348 L1000 108 L1160 348" stroke-width="7"/>
  </g>
  <g fill="none" stroke-linecap="round" stroke-linejoin="round">
    <path d="M900 330 L1000 170 L1100 330" stroke="#F26B1F" stroke-width="16" opacity="0.95"/>
    <path d="M1040 208 L1082 138 L1124 208" stroke="#E9B03A" stroke-width="9" opacity="0.9"/>
  </g>

  <g font-family="ui-sans-serif, -apple-system, 'Segoe UI', 'PingFang SC', 'Microsoft YaHei', sans-serif">
    <text x="76" y="120" fill="#8B857E" font-size="15" font-weight="600" letter-spacing="3.4">PERSONAL SITE · ADMIN PANEL</text>

    <text x="76" y="200" fill="#F4F2EE" font-size="82" font-weight="700" letter-spacing="-2.5">litesite</text>

    <rect x="78" y="222" width="96" height="4" rx="2" fill="url(#rule)"/>

    <text x="76" y="272" fill="#C4BEB6" font-size="27" font-weight="500">轻量个人主页 + 独立管理后台</text>

    <text x="76" y="324" fill="#7C766F" font-size="17">Express 4　·　SQLite 单文件　·　5 个生产依赖　·　常驻内存约 70MB</text>

    <g>
      <rect x="76" y="348" width="150" height="30" rx="15" fill="#17171B" stroke="#2E2E34"/>
      <text x="151" y="368" fill="#B4AEA6" font-size="13.5" text-anchor="middle">2 核 1G 优化</text>

      <rect x="238" y="348" width="132" height="30" rx="15" fill="#17171B" stroke="#2E2E34"/>
      <text x="304" y="368" fill="#B4AEA6" font-size="13.5" text-anchor="middle">零构建前端</text>

      <rect x="382" y="348" width="158" height="30" rx="15" fill="#17171B" stroke="#2E2E34"/>
      <text x="461" y="368" fill="#B4AEA6" font-size="13.5" text-anchor="middle">PM2 内存上限</text>
    </g>
  </g>

  <rect x="0.5" y="0.5" width="1199" height="419" rx="14" fill="none" stroke="#25252A"/>
</svg>
